<svg width="318" height="181" viewBox="0 0 318 181" fill="none" xmlns="http://www.w3.org/2000/svg">
<path d="M151.328 86.1143C142.645 93.341 136.946 97.7316 133.132 100.977C125.579 94.6377 99.4976 72.825 89.9012 65.7083C82.5797 60.2788 78.3444 51.5924 78.5719 42.4737C78.7956 33.5788 83.1106 25.6886 90.4169 20.8165C90.724 20.6155 91.0271 20.4108 91.3873 20.1946C97.7533 16.3159 105.249 15.1405 112.495 16.8922C119.741 18.6439 125.868 23.1141 129.75 29.4763C129.883 29.7 130.042 29.901 130.224 30.0754C130.876 30.7313 131.817 31.0991 132.84 30.9702C134.137 30.811 135.225 29.8214 135.498 28.5436C135.692 27.6336 135.483 26.7654 135.017 26.0905C130.262 18.3633 122.789 12.9376 113.966 10.803C105.098 8.66077 95.9221 10.0978 88.1684 14.822C87.7475 15.0723 87.3419 15.3415 86.9438 15.6069C77.9199 21.624 72.5853 31.3569 72.3123 42.3145C72.0355 53.473 77.2145 64.0968 86.1739 70.7396C97.0519 78.808 130.793 107.188 131.13 107.476C131.714 107.965 132.431 108.211 133.148 108.211C133.872 108.211 134.596 107.957 135.183 107.461C135.305 107.351 143.824 100.507 155.343 90.922C156.833 89.6822 156.829 87.3959 155.339 86.1598C155.317 86.1409 155.298 86.1257 155.279 86.1105C154.13 85.1589 152.469 85.1626 151.328 86.1143Z" fill="#F1B329"/>
<path d="M169.398 4.02378L162.881 9.97649L159.594 12.9756L159.298 12.7064L159.002 12.9756L155.715 9.97649L149.197 4.02378L153.607 0.000968933H164.989L169.398 4.02378Z" fill="#BBBCBD"/>
<path d="M167.253 86.1029C175.936 93.3296 181.65 97.7316 185.46 100.977C193.017 94.6377 219.095 72.825 228.691 65.7083C236.013 60.2788 240.248 51.5924 240.02 42.4737C239.797 33.5788 235.482 25.6886 228.176 20.8165C227.872 20.6155 227.569 20.4108 227.205 20.1946C220.839 16.3159 213.343 15.1405 206.098 16.8922C198.852 18.6439 192.725 23.1141 188.846 29.4763C188.71 29.7 188.55 29.901 188.368 30.0754C187.716 30.7313 186.776 31.0991 185.752 30.9702C184.456 30.811 183.367 29.8214 183.094 28.5436C182.901 27.6336 183.11 26.7654 183.576 26.0905C188.334 18.3633 195.804 12.9376 204.626 10.803C213.495 8.66077 222.67 10.0978 230.424 14.822C230.849 15.0723 231.251 15.3415 231.649 15.6069C240.673 21.624 246.007 31.3569 246.28 42.3145C246.557 53.473 241.378 64.0968 232.422 70.7396C221.541 78.808 187.8 107.188 187.462 107.476C186.878 107.965 186.162 108.211 185.445 108.211C184.721 108.211 183.997 107.957 183.413 107.461C183.288 107.351 174.753 100.492 163.234 90.9068C161.744 89.667 161.748 87.3807 163.242 86.1447C163.261 86.1295 163.284 86.1105 163.303 86.0954C164.448 85.1437 166.108 85.1513 167.253 86.1029Z" fill="#F1B329"/>
<path d="M179.522 70.7436C177.308 72.3854 171.848 77.1134 167.438 80.6661C166.858 81.1325 166.164 81.3599 165.474 81.3599C164.56 81.3599 163.654 80.9618 163.033 80.1922C161.948 78.8462 162.161 76.8745 163.51 75.7902C167.984 72.1844 173.512 67.4033 175.791 65.7123C183.116 60.279 187.355 51.585 187.128 42.4625C187.01 37.852 185.793 33.5107 183.628 29.7192C183.522 29.5258 183.408 29.3324 183.294 29.1429C181.315 25.8708 178.616 23.0347 175.302 20.8242C174.987 20.6157 174.669 20.4109 174.312 20.1986C169.725 17.3967 164.545 16.0052 159.298 16.1038C154.05 16.0052 148.871 17.3967 144.283 20.1986C143.927 20.4109 143.608 20.6157 143.294 20.8242C139.98 23.0347 137.28 25.8708 135.301 29.1429C135.188 29.3324 135.074 29.5258 134.968 29.7192C132.803 33.5107 131.586 37.852 131.468 42.4625C131.24 51.585 135.479 60.279 142.805 65.7123C145.083 67.4033 150.623 72.2034 155.097 75.8091C156.447 76.8935 156.659 78.8651 155.575 80.2111C154.953 80.9808 154.047 81.3789 153.133 81.3789C152.443 81.3789 151.749 81.1514 151.169 80.6851C146.759 77.1324 141.288 72.3854 139.074 70.7436C130.114 64.0933 124.928 53.4618 125.208 42.3033C125.337 37.1809 126.569 32.3202 128.772 27.9864C129.781 26.0035 130.994 24.1305 132.393 22.3901C134.467 19.8043 136.962 17.518 139.832 15.6071C140.238 15.3379 140.64 15.0801 141.045 14.8374C145.569 12.0734 150.574 10.4354 155.715 9.97664C156.902 9.86289 158.1 9.8212 159.298 9.84016C160.496 9.8212 161.694 9.86289 162.881 9.97664C168.022 10.4354 173.027 12.0734 177.55 14.8374C177.956 15.0801 178.358 15.3379 178.764 15.6071C181.634 17.518 184.129 19.8043 186.203 22.3901C187.602 24.1305 188.815 26.0035 189.824 27.9864C192.027 32.3202 193.259 37.1809 193.388 42.3033C193.668 53.4618 188.481 64.0933 179.522 70.7436Z" fill="#8F9195"/>
<path d="M1.42568 166.097C0.595331 165.505 0 164.497 0 163.306C0 161.407 1.5431 159.924 3.44645 159.924C4.455 159.924 5.10732 160.22 5.58126 160.576C9.02777 163.306 12.7056 164.853 17.2213 164.853C21.7332 164.853 24.5804 162.715 24.5804 159.629V159.507C24.5804 156.538 22.9198 154.935 15.2002 153.156C6.35456 151.018 1.3688 148.406 1.3688 140.747V140.629C1.3688 133.501 7.30239 128.576 15.5566 128.576C20.7813 128.576 24.9976 129.941 28.7399 132.432C29.5702 132.91 30.3436 133.918 30.3436 135.344C30.3436 137.243 28.7967 138.726 26.8971 138.726C26.1843 138.726 25.5928 138.548 24.9975 138.191C21.7899 136.113 18.7038 135.044 15.4393 135.044C11.1624 135.044 8.67137 137.243 8.67137 139.973V140.095C8.67137 143.298 10.5709 144.724 18.5862 146.624C27.3712 148.762 31.8868 151.909 31.8868 158.794V158.916C31.8868 166.692 25.7711 171.325 17.043 171.325C11.4012 171.325 6.05894 169.543 1.42568 166.097Z" fill="#F1B329"/>
<path d="M71.3077 155.234V155.113C71.3077 149.592 67.3303 145.02 61.6885 145.02C55.9291 145.02 52.2514 149.532 52.2514 154.995V155.113C52.2514 160.576 56.2288 165.149 61.8099 165.149C67.6261 165.149 71.3077 160.637 71.3077 155.234ZM45.0664 155.234V155.113C45.0664 146.15 52.1908 138.726 61.8099 138.726C71.429 138.726 78.4927 146.032 78.4927 154.995V155.113C78.4927 164.019 71.3683 171.443 61.6885 171.443C52.13 171.443 45.0664 164.14 45.0664 155.234Z" fill="#F1B329"/>
<path d="M120.763 167.466C120.763 169.423 119.163 171.026 117.142 171.026C115.182 171.026 113.521 169.483 113.521 167.466V165.862C111.504 168.831 108.592 171.383 103.724 171.383C96.6604 171.383 92.5615 166.632 92.5615 159.33V142.647C92.5615 140.63 94.1653 139.026 96.1256 139.026C98.1427 139.026 99.7465 140.63 99.7465 142.647V157.195C99.7465 162.063 102.181 164.793 106.454 164.793C110.613 164.793 113.521 161.942 113.521 157.074V142.647C113.521 140.63 115.125 139.026 117.142 139.026C119.102 139.026 120.763 140.63 120.763 142.647V167.466Z" fill="#F1B329"/>
<path d="M137.269 130.654C137.269 128.693 138.812 127.09 140.833 127.09C142.85 127.09 144.454 128.693 144.454 130.654V167.466C144.454 169.483 142.85 171.026 140.833 171.026C138.872 171.026 137.269 169.483 137.269 167.466V130.654Z" fill="#F1B329"/>
<path d="M160.724 166.097C159.889 165.505 159.298 164.497 159.298 163.306C159.298 161.407 160.841 159.924 162.741 159.924C163.749 159.924 164.405 160.22 164.879 160.576C168.322 163.306 172.003 164.853 176.515 164.853C181.027 164.853 183.879 162.715 183.879 159.629V159.507C183.879 156.538 182.214 154.935 174.498 153.156C165.649 151.018 160.663 148.406 160.663 140.747V140.629C160.663 133.501 166.601 128.576 174.855 128.576C180.079 128.576 184.295 129.941 188.034 132.432C188.864 132.91 189.638 133.918 189.638 135.344C189.638 137.243 188.095 138.726 186.195 138.726C185.482 138.726 184.887 138.548 184.296 138.191C181.088 136.113 178.002 135.044 174.733 135.044C170.46 135.044 167.965 137.243 167.965 139.973V140.095C167.965 143.298 169.865 144.724 177.88 146.624C186.669 148.762 191.181 151.909 191.181 158.794V158.916C191.181 166.692 185.065 171.325 176.337 171.325C170.699 171.325 165.353 169.543 160.724 166.097Z" fill="#F1B329"/>
<path d="M205.907 179.519C204.838 179.163 203.647 178.272 203.647 176.55C203.647 174.768 205.012 173.581 206.559 173.581C207.151 173.581 207.507 173.699 207.863 173.817C208.694 174.055 209.35 174.234 210.358 174.234C212.497 174.234 213.623 173.343 214.81 170.908L215.048 170.256L203.412 144.25C203.173 143.716 202.995 143.003 202.995 142.529C202.995 140.508 204.538 139.025 206.559 139.025C208.398 139.025 209.407 140.095 210.062 141.755L218.491 162.597L226.328 141.755C226.923 140.269 227.932 139.025 229.775 139.025C231.674 139.025 233.218 140.508 233.218 142.407C233.218 143.003 233.039 143.772 232.922 144.129L221.46 171.621C218.791 178.033 215.94 180.406 210.893 180.406C208.872 180.406 207.39 180.111 205.907 179.519Z" fill="#F1B329"/>
<path d="M247.166 142.646C247.166 140.629 248.709 139.025 250.73 139.025C252.747 139.025 254.351 140.629 254.351 142.646V144.189C256.372 141.281 259.28 138.726 264.148 138.726C271.216 138.726 275.311 143.477 275.311 150.722V167.466C275.311 169.483 273.768 171.026 271.747 171.026C269.73 171.026 268.126 169.483 268.126 167.466V152.917C268.126 148.049 265.691 145.259 261.418 145.259C257.259 145.259 254.351 148.167 254.351 153.035V167.466C254.351 169.483 252.747 171.026 250.73 171.026C248.77 171.026 247.166 169.483 247.166 167.466V142.646Z" fill="#F1B329"/>
<path d="M289.382 155.234V155.113C289.382 146.206 296.271 138.726 305.708 138.726C310.637 138.726 314.023 140.329 316.692 142.646C317.17 143.059 317.822 143.95 317.822 145.141C317.822 146.98 316.336 148.405 314.497 148.405C313.606 148.405 312.836 148.049 312.359 147.693C310.52 146.15 308.499 145.02 305.651 145.02C300.427 145.02 296.567 149.532 296.567 154.995V155.113C296.567 160.694 300.427 165.149 305.947 165.149C308.799 165.149 310.994 164.019 312.954 162.358C313.367 162.002 314.08 161.585 314.914 161.585C316.636 161.585 318.001 163.01 318.001 164.732C318.001 165.684 317.644 166.453 316.992 166.988C314.201 169.661 310.815 171.443 305.591 171.443C296.271 171.443 289.382 164.14 289.382 155.234Z" fill="#F1B329"/>
</svg>
